<?xml version="1.0" encoding="UTF-8" standalone="no"?>
<!-- Created with Inkscape (http://www.inkscape.org/) -->

<svg
   xmlns:dc="http://purl.org/dc/elements/1.1/"
   xmlns:cc="http://creativecommons.org/ns#"
   xmlns:rdf="http://www.w3.org/1999/02/22-rdf-syntax-ns#"
   xmlns:svg="http://www.w3.org/2000/svg"
   xmlns="http://www.w3.org/2000/svg"
   xmlns:sodipodi="http://sodipodi.sourceforge.net/DTD/sodipodi-0.dtd"
   xmlns:inkscape="http://www.inkscape.org/namespaces/inkscape"
   width="6742.4888"
   height="1204.7666"
   id="svg2"
   version="1.1"
   inkscape:version="0.91 r13725"
   sodipodi:docname="banner_wordsonly.svg"
   style="display:inline"
   inkscape:export-filename="/home/yoh/deb/gits/pkg-exppsy/neurodebian/artwork/banner_wordsonly.png"
   inkscape:export-xdpi="4"
   inkscape:export-ydpi="4">
  <defs
     id="defs4" />
  <sodipodi:namedview
     id="base"
     pagecolor="#ffffff"
     bordercolor="#666666"
     borderopacity="1.0"
     inkscape:pageopacity="0.0"
     inkscape:pageshadow="2"
     inkscape:zoom="0.0625"
     inkscape:cx="1919.7623"
     inkscape:cy="760.5109"
     inkscape:document-units="in"
     inkscape:current-layer="layer7"
     showgrid="false"
     units="in"
     showguides="false"
     inkscape:guide-bbox="true"
     inkscape:window-width="928"
     inkscape:window-height="1179"
     inkscape:window-x="990"
     inkscape:window-y="19"
     inkscape:window-maximized="0"
     fit-margin-top="0"
     fit-margin-left="0"
     fit-margin-right="0"
     fit-margin-bottom="0">
    <sodipodi:guide
       orientation="1,0"
       position="-2595.1096,1656.5091"
       id="guide4169" />
    <sodipodi:guide
       orientation="0,1"
       position="-2381.6889,-410.30131"
       id="guide4171" />
    <sodipodi:guide
       orientation="0,1"
       position="1665.8737,1820.9172"
       id="guide4299" />
    <sodipodi:guide
       orientation="0,1"
       position="2018.4619,2583.2701"
       id="guide4301" />
  </sodipodi:namedview>
  <metadata
     id="metadata7">
    <rdf:RDF>
      <cc:Work
         rdf:about="">
        <dc:format>image/svg+xml</dc:format>
        <dc:type
           rdf:resource="http://purl.org/dc/dcmitype/StillImage" />
        <dc:title />
      </cc:Work>
    </rdf:RDF>
  </metadata>
  <g
     inkscape:groupmode="layer"
     id="layer7"
     inkscape:label="Lower case"
     style="display:inline"
     transform="translate(-2774.8322,-365.20941)">
    <g
       transform="matrix(1.083398,0,0,1.083398,1550.1101,3030.305)"
       style="display:inline"
       id="g4330">
      <g
         id="g4268"
         inkscape:label="debian_name"
         transform="matrix(38.151019,0,0,-38.151019,4034.4656,-1347.9155)">
        <g
           id="g4270">
          <path
             inkscape:connector-curvature="0"
             d="M 10.75,14.902 C 10.715,14.863 10.715,8.894 10.641,7.339 10.566,6.078 10.453,3.375 7.785,3.375 c -2.742,0 -3.41,3.148 -3.633,4.519 -0.257,1.52 -0.257,2.781 -0.257,3.336 0,1.781 0.109,6.75 4.296,6.75 1.262,0 1.965,-0.371 2.524,-0.668 l 0.035,-2.41 z M 0,10.527 C 0,0.074 5.562,0.074 6.375,0.074 c 2.301,0 3.781,1.261 4.414,3.445 l 0.074,-3.297 c 0.703,0.035 1.407,0.11 2.555,0.11 0.41,0 0.742,0 1.039,-0.036 0.297,0 0.594,-0.039 0.926,-0.074 -0.59,1.184 -1.035,3.856 -1.035,9.637 0,5.637 0,15.164 0.48,18.055 -1.332,-0.633 -2.484,-1.039 -5.004,-1.262 1,-1.074 1,-1.629 1,-6.524 C 10.121,20.351 9.23,20.613 7.711,20.613 1.074,20.609 0,14.828 0,10.527"
             style="fill:#000000;fill-opacity:1;fill-rule:nonzero;stroke:none"
             id="path4272" />
          <path
             inkscape:connector-curvature="0"
             d="m 20.105,12.418 c 0.036,3.078 0.668,5.82 3.297,5.82 2.895,0 3.114,-3.188 3.039,-5.82 l -6.336,0 z m 10.008,-0.372 c 0,4.336 -0.851,8.602 -6.34,8.602 -7.562,0 -7.562,-8.379 -7.562,-10.156 C 16.211,2.964 19.586,0 25.258,0 27.777,0 29,0.371 29.668,0.554 29.633,1.89 29.816,2.742 30.039,3.89 29.262,3.41 28.258,2.781 26.035,2.781 c -5.781,0 -5.859,5.265 -5.859,7.078 l 9.863,0 0.074,2.187"
             style="fill:#000000;fill-opacity:1;fill-rule:nonzero;stroke:none"
             id="path4274" />
          <path
             inkscape:connector-curvature="0"
             d="m 42.172,10.453 c 0,-3.446 -0.629,-8.082 -4.93,-8.082 -0.594,0 -1.336,0.113 -1.816,0.222 -0.074,1.336 -0.074,3.633 -0.074,6.301 0,3.191 0.332,4.856 0.593,5.676 0.778,2.629 2.52,2.664 2.852,2.664 2.82,0 3.375,-3.891 3.375,-6.781 z M 31.535,6.414 c 0,-2.746 0,-4.301 -0.445,-5.489 C 32.609,0.332 34.5,0 36.762,0 c 1.445,0 5.633,0 7.894,4.632 1.074,2.153 1.446,5.043 1.446,7.231 0,1.332 -0.149,4.262 -1.223,6.117 -1.039,1.738 -2.707,2.629 -4.484,2.629 -3.559,0 -4.598,-2.965 -5.153,-4.484 0,1.89 0.035,8.488 0.332,11.863 -2.41,-1.113 -3.894,-1.297 -5.484,-1.445 1.445,-0.594 1.445,-3.043 1.445,-11.012 l 0,-9.117"
             style="fill:#000000;fill-opacity:1;fill-rule:nonzero;stroke:none"
             id="path4276" />
          <path
             inkscape:connector-curvature="0"
             d="m 53.227,0.222 c -0.743,0.11 -1.262,0.184 -2.336,0.184 -1.184,0 -2,-0.074 -2.852,-0.184 0.367,0.703 0.516,1.039 0.629,3.446 0.148,3.3 0.184,12.125 -0.074,13.976 -0.188,1.41 -0.52,1.633 -1.039,2.004 3.039,0.297 3.894,0.52 5.3,1.184 -0.293,-1.629 -0.332,-2.446 -0.332,-4.93 C 52.449,3.113 52.41,1.742 53.227,0.222"
             style="fill:#000000;fill-opacity:1;fill-rule:nonzero;stroke:none"
             id="path4278" />
          <path
             inkscape:connector-curvature="0"
             d="M 65.098,10.714 C 65.023,8.378 64.988,6.746 64.355,5.449 63.578,3.781 62.281,3.3 61.316,3.3 c -2.226,0 -2.707,1.852 -2.707,3.668 0,3.485 3.118,3.746 4.524,3.746 l 1.965,0 z M 54.902,6.152 c 0,-2.336 0.707,-4.668 2.782,-5.672 0.925,-0.406 1.855,-0.406 2.152,-0.406 3.41,0 4.559,2.519 5.262,4.078 -0.036,-1.633 0,-2.633 0.113,-3.93 0.668,0.035 1.332,0.11 2.445,0.11 0.633,0 1.223,-0.075 1.856,-0.11 -0.41,0.629 -0.633,1 -0.742,2.446 -0.075,1.41 -0.075,2.816 -0.075,4.781 l 0.035,7.562 c 0,2.821 -0.742,5.602 -6.3,5.602 -3.668,0 -5.821,-1.113 -6.895,-1.672 0.445,-0.816 0.817,-1.516 1.149,-3.113 1.449,1.261 3.339,1.929 5.265,1.929 3.078,0 3.078,-2.039 3.078,-4.929 -0.707,0.035 -1.3,0.109 -2.3,0.109 -4.711,0 -7.825,-1.816 -7.825,-6.785"
             style="fill:#000000;fill-opacity:1;fill-rule:nonzero;stroke:none"
             id="path4280" />
          <path
             inkscape:connector-curvature="0"
             d="m 86.449,3.89 c 0.039,-1.262 0.039,-2.594 0.559,-3.668 -0.817,0.071 -1.301,0.184 -2.817,0.184 -0.89,0 -1.375,-0.074 -2.078,-0.184 0.149,0.481 0.223,0.664 0.297,1.297 0.11,0.852 0.184,3.707 0.184,4.707 l 0,4.004 c 0,1.742 0,4.266 -0.114,5.152 -0.07,0.629 -0.253,2.336 -2.406,2.336 -2.113,0 -2.816,-1.558 -3.078,-2.816 -0.297,-1.297 -0.297,-2.707 -0.297,-8.192 0.039,-4.746 0.039,-5.191 0.406,-6.488 -0.628,0.074 -1.406,0.149 -2.519,0.149 -0.891,0 -1.481,-0.039 -2.223,-0.149 0.262,0.594 0.41,0.891 0.481,2.965 0.078,2.039 0.226,12.051 -0.11,14.422 -0.187,1.445 -0.558,1.777 -0.964,2.148 3.003,0.149 3.964,0.633 4.894,1.114 l 0,-3.93 c 0.445,1.148 1.371,3.707 5.078,3.707 4.633,0 4.672,-3.371 4.707,-5.598 l 0,-11.16"
             style="fill:#000000;fill-opacity:1;fill-rule:nonzero;stroke:none"
             id="path4282" />
          <path
             inkscape:connector-curvature="0"
             d="m 53.539,26.078 -3.07,-3.067 -3.067,3.067 3.067,3.07 3.07,-3.07"
             style="fill:#d70751;fill-opacity:1;fill-rule:nonzero;stroke:none"
             id="path4284" />
        </g>
      </g>
      <g
         id="text4295"
         style="font-style:normal;font-variant:normal;font-weight:bold;font-stretch:normal;font-size:1209.58557129px;line-height:125%;font-family:LaudatioC;-inkscape-font-specification:'LaudatioC Bold';text-align:start;letter-spacing:0px;word-spacing:0px;writing-mode:lr-tb;text-anchor:start;fill:#d70a53;fill-opacity:1;stroke:none"
         transform="scale(0.91092484,1.0977854)">
        <path
           id="path4320"
           d="m 1881.5927,-1237.2474 c -39.9605,-4.1624 -67.0166,-6.2437 -81.1685,-6.2437 -12.488,0 -40.7928,2.0813 -84.9146,6.2437 12.4869,-48.2848 18.7307,-111.5545 18.7312,-189.8093 l 0,-274.724 c -5e-4,-49.9492 -7.9093,-85.7466 -23.7262,-107.3921 -19.1479,-26.6393 -52.4478,-39.9592 -99.8997,-39.9598 -82.4175,6e-4 -138.1948,31.6354 -167.3319,94.9046 -18.3151,41.6254 -27.4725,109.4737 -27.4723,203.5455 l 0,137.3621 c -2e-4,78.2547 6.6598,136.9457 19.9799,176.073 -33.3001,-4.9949 -59.5237,-7.4925 -78.671,-7.4925 -19.9801,0 -46.2036,2.4976 -78.6709,7.4925 10.8223,-44.9548 16.2336,-103.6458 16.2337,-176.073 l 0,-242.2567 c -10e-5,-69.0968 -1.6651,-116.1328 -4.995,-141.1082 -6.6601,-60.7717 -22.8938,-101.564 -48.7011,-122.3771 54.1123,6e-4 113.6357,-12.0705 178.5706,-36.2136 -0.8327,19.1482 -1.249,42.0418 -1.2488,68.681 l 0,94.9046 c 27.4722,-55.7766 60.3558,-95.3203 98.651,-118.6308 38.2944,-23.3092 88.6605,-34.9641 151.0982,-34.9648 82.4166,7e-4 136.9451,24.9756 163.5856,74.9247 18.3143,34.9654 27.4717,97.4026 27.4724,187.3118 l 0,272.2265 c -7e-4,82.4173 7.4918,140.2757 22.4774,173.5756"
           inkscape:connector-curvature="0" />
        <path
           id="path4322"
           d="m 2548.0741,-1655.5771 c -7e-4,22.4778 -1.2494,47.0365 -3.7463,73.676 l -450.7971,0 c 13.3198,177.322 97.4018,265.9828 252.2466,265.9827 77.4216,10e-5 137.7777,-23.3098 181.068,-69.9297 -14.153,41.625 -22.8942,84.0822 -26.2236,127.3721 -57.4428,16.6499 -116.5501,24.9749 -177.3218,24.9749 -113.2199,0 -202.297,-31.6349 -267.2315,-94.9047 -64.9349,-63.2697 -97.4022,-151.5142 -97.4022,-264.7341 0,-106.5591 25.3911,-190.6411 76.1735,-252.2466 55.7771,-66.599 135.6967,-99.8988 239.759,-99.8995 89.0768,7e-4 156.9252,25.8081 203.5456,77.4222 46.6192,51.6154 69.9291,122.3776 69.9298,212.2867 m -131.1183,0 c 0.832,-145.6864 -49.9503,-218.5298 -152.3469,-218.5304 -105.7275,6e-4 -163.1696,72.844 -172.3269,218.5304 l 324.6738,0"
           inkscape:connector-curvature="0" />
        <path
           id="path4324"
           d="m 3217.6187,-1238.4962 c -24.9755,-4.9949 -50.3666,-7.4924 -76.1734,-7.4924 -19.148,0 -47.0366,2.4975 -83.6659,7.4924 l -1.2488,-149.8493 c -42.4578,102.3971 -114.885,153.5956 -217.2817,153.5956 -132.3671,0 -198.5506,-65.3509 -198.5505,-196.053 l 0,-312.1863 c -1e-4,-85.7467 -13.7363,-144.8539 -41.2086,-177.3219 79.087,7e-4 137.778,-12.0706 176.0731,-36.2137 -9.1577,34.1331 -13.7364,81.1691 -13.7362,141.1083 l 0,344.6537 c -2e-4,89.9098 41.2084,134.8646 123.6257,134.8646 111.5542,0 167.3314,-84.4983 167.3319,-253.4954 l 0,-142.357 c -5e-4,-99.0666 -13.3204,-161.92 -39.9598,-188.5605 68.2642,7e-4 127.3714,-12.0706 177.3218,-36.2137 -9.9906,45.788 -14.9855,101.1491 -14.9849,166.0832 l 0,348.4 c -6e-4,101.5647 14.1518,169.4132 42.4573,203.5454"
           inkscape:connector-curvature="0" />
        <path
           id="path4326"
           d="m 3679.891,-1944.0373 c -14.1528,38.2955 -23.3103,80.3366 -27.4724,126.1233 -12.4878,-3.3294 -23.7266,-4.9945 -33.7161,-4.995 -49.1176,5e-4 -89.91,22.8943 -122.3771,68.681 -29.97,42.4579 -44.9551,108.225 -44.9548,197.3018 l 0,153.5956 c -3e-4,61.6049 6.2435,116.9659 18.7311,166.0832 -37.4625,-5.8275 -63.2699,-8.7412 -77.4222,-8.7412 -13.3201,0 -40.3761,2.9137 -81.1684,8.7412 11.6548,-44.1223 17.4824,-103.6458 17.4825,-178.5706 l 0,-315.9326 c -10e-5,-87.4116 -15.8175,-149.8488 -47.4524,-187.3118 60.7722,-2.4968 119.0469,-14.1518 174.8244,-34.9649 -2.4977,50.7831 -3.7465,85.3316 -3.7463,103.6459 l 0,82.4172 c 50.7821,-111.5539 126.5392,-170.2449 227.2717,-176.0731"
           inkscape:connector-curvature="0" />
        <path
           id="path4328"
           d="m 4340.1286,-1595.6373 c -7e-4,109.0573 -26.6405,195.6369 -79.9197,259.7391 -56.6104,69.0972 -138.6112,103.6457 -246.0028,103.6458 -108.2249,-10e-5 -191.4745,-32.0511 -249.7491,-96.1534 -55.7774,-61.6047 -83.666,-146.9355 -83.666,-255.9928 0,-109.8892 27.0562,-196.885 81.1685,-260.9879 57.4422,-67.4315 140.2755,-101.1476 248.5003,-101.1483 105.7266,7e-4 187.7275,32.4681 246.0029,97.4022 55.7766,62.4378 83.6652,146.9361 83.6659,253.4953 m -132.367,7.4925 c -5e-4,-185.6464 -63.2702,-278.4696 -189.8093,-278.4703 -138.1947,7e-4 -207.2919,92.8239 -207.2918,278.4703 -10e-5,184.8144 67.4321,277.2215 202.2968,277.2215 129.869,0 194.8038,-92.4071 194.8043,-277.2215"
           inkscape:connector-curvature="0" />
      </g>
    </g>
  </g>
</svg>
